<?xml version="1.0" encoding="UTF-8"?>
<!DOCTYPE svg PUBLIC "-//W3C//DTD SVG 1.0//EN" "http://www.w3.org/TR/2001/REC-SVG-20010904/DTD/svg10.dtd">
<!-- Creator: CorelDRAW 2017 -->
<svg xmlns="http://www.w3.org/2000/svg" xml:space="preserve" width="50px" height="50px" version="1.0" style="shape-rendering:geometricPrecision; text-rendering:geometricPrecision; image-rendering:optimizeQuality; fill-rule:evenodd; clip-rule:evenodd"
viewBox="0 0 50 50"
 xmlns:xlink="http://www.w3.org/1999/xlink">
 <defs>
  <style type="text/css">
   <![CDATA[
    .fil0 {fill:#FEFEFE}
   ]]>
  </style>
 </defs>
 <g id="Camada_x0020_1">
  <metadata id="CorelCorpID_0Corel-Layer"/>
  <g id="_1708976087360">
   <path class="fil0" d="M24.29 41.92c5.29,0 10.92,-0.55 14.53,-4.16 5.11,-5.09 0.6,-14.22 -5.18,-17.28 -1.84,1.23 -2.78,3.66 -8.62,3.66 -2.21,0 -4.39,-1.03 -5.97,-2.27 -0.63,-0.49 -0.93,-0.98 -1.54,-1.39 -2.33,1.23 -4.17,3 -5.44,5.37 -1.13,2.12 -2.57,5.36 -1.78,8.44 1.24,4.84 7.9,7.63 14,7.63z"/>
   <path class="fil0" d="M25.39 22.68c4.98,0 8.59,-3.61 8.96,-8.47 0.25,-3.19 -1.89,-6.33 -4.63,-7.95 -0.99,-0.59 -2.18,-0.91 -3.41,-1l-1.33 0c-1.23,0.09 -2.43,0.4 -3.44,0.91 -1.12,0.58 -1.48,1.04 -2.34,1.89 -0.83,0.82 -1.2,1.42 -1.69,2.52 -2.46,5.47 1.85,12.1 7.88,12.1z"/>
  </g>
 </g>
</svg>
