<?xml version="1.0" encoding="UTF-8"?>
<!DOCTYPE svg PUBLIC "-//W3C//DTD SVG 1.0//EN" "http://www.w3.org/TR/2001/REC-SVG-20010904/DTD/svg10.dtd">
<!-- Creator: CorelDRAW 2017 -->
<svg xmlns="http://www.w3.org/2000/svg" xml:space="preserve" width="191px" height="135px" version="1.0" style="shape-rendering:geometricPrecision; text-rendering:geometricPrecision; image-rendering:optimizeQuality; fill-rule:evenodd; clip-rule:evenodd"
viewBox="0 0 185.58 130.73"
 xmlns:xlink="http://www.w3.org/1999/xlink">
 <defs>
  <style type="text/css">
   <![CDATA[
    .fil1 {fill:#00B2E5}
    .fil0 {fill:#4BA84F}
    .fil2 {fill:#FEBF3B}
   ]]>
  </style>
 </defs>
 <g id="Camada_x0020_1">
  <metadata id="CorelCorpID_0Corel-Layer"/>
  <g id="_2469288687856">
   <path class="fil0" d="M113.51 31.37c0.32,-1.13 -0.15,-0.28 0.69,-1.08l3.15 -1.59c1.75,-0.75 2.88,-1 4.51,-1.46 -2.02,-1.52 -6.61,-1.35 -11.67,-1.54 -23.28,1.69 -37.82,12.01 -53.84,24.74 -1.25,0.99 -1.96,1.82 -3.22,2.78 -2.28,1.75 -4.15,4.55 -6.41,5.72 2.07,-8.01 6.65,-16.23 12.82,-20.97 -12.89,2.43 -29.52,15.53 -37.91,25.79l-8.66 12.12c-0.31,1.82 -11.02,20.2 -12.97,37.07 1.5,-1 2.76,-2.43 4.02,-3.76 6.76,-7.16 23.32,-16.89 32.4,-20.77 34.96,-14.96 66.97,-14.4 103.63,-5.43 16,3.92 29.88,10.4 43.69,16.38 -1.66,-5.93 -10.81,-16.44 -15.34,-20.71 -9.72,-9.14 -17.85,-9.8 -22.93,-12.23 -0.06,-0.02 -0.22,-0.03 -0.26,-0.15 -0.04,-0.12 -0.17,-0.1 -0.25,-0.16 4.09,-4.23 7.29,-5.62 15.15,-5.86l-2.05 -1.31c-12.04,-5 -21.94,-5.06 -34.29,-2.98 1.06,-2.68 5.24,-5.58 7.87,-7.41 10.57,-7.37 19.56,-10.76 33.57,-11.22 -6.57,-5.56 -27.97,-4.86 -38.02,-3.11 -4.04,0.7 -7.83,1.97 -11.47,2.61 -2.73,0.63 -5.67,1.74 -8.14,2.66 -1.32,0.5 -2.43,0.87 -3.76,1.4 -2.96,1.19 -2.89,1.98 -3.87,1.27 1.65,-1.34 11.1,-11.78 13.56,-10.8z"/>
   <path class="fil1" d="M4.03 114.35c1.14,-0.47 2,-0.81 3.13,-1.16 41.74,-13.06 81.2,17.55 106.87,17.54 10.2,0 14.07,-5.6 9.03,-14.46 -4.71,-8.29 -12.79,-10.38 -11.9,-15.31 8.09,-4.66 30.81,8.03 35.36,12.44 1.07,1.04 1.75,1.8 2.82,2.73 1.73,1.5 3.78,3.11 6.08,4.65 10.35,6.92 28.12,6.92 30.03,-0.84 0.7,-2.86 -1.53,-4.28 -3.1,-5.5 -8.95,-6.97 -17.38,-12.34 -28.13,-16.89 -41.76,-17.67 -96.14,-16.44 -135.86,5.83 -9.94,5.57 -9.56,6.28 -16.62,11.27l-1.07 0.66 3.36 -0.96z"/>
   <path class="fil2" d="M12.97 75.88l8.66 -12.12c8.39,-10.26 25.02,-23.36 37.91,-25.79 -6.17,4.74 -10.75,12.96 -12.82,20.97 2.26,-1.17 4.13,-3.97 6.41,-5.72 1.26,-0.96 1.97,-1.79 3.22,-2.78 16.02,-12.73 30.56,-23.05 53.84,-24.74 -2.68,-4.93 -8.13,-10.42 -12.04,-13.59 -27.28,-22.1 -69.19,-13.17 -84.56,20.47 -6.03,13.21 -6.46,29.8 -0.62,43.3z"/>
   <path class="fil2" d="M115.72 36.84l-2.21 -5.47c-2.46,-0.98 -11.91,9.46 -13.56,10.8 0.98,0.71 0.91,-0.08 3.87,-1.27 1.33,-0.53 2.44,-0.9 3.76,-1.4 2.47,-0.92 5.41,-2.03 8.14,-2.66z"/>
  </g>
  <g id="_2469288706832">
   <path class="fil0" d="M113.51 31.37c0.32,-1.13 -0.15,-0.28 0.69,-1.08l3.15 -1.59c1.75,-0.75 2.88,-1 4.51,-1.46 -2.02,-1.52 -6.61,-1.35 -11.67,-1.54 -23.28,1.69 -37.82,12.01 -53.84,24.74 -1.25,0.99 -1.96,1.82 -3.22,2.78 -2.28,1.75 -4.15,4.55 -6.41,5.72 2.07,-8.01 6.65,-16.23 12.82,-20.97 -12.89,2.43 -29.52,15.53 -37.91,25.79l-8.66 12.12c-0.31,1.82 -11.02,20.2 -12.97,37.07 1.5,-1 2.76,-2.43 4.02,-3.76 6.76,-7.16 23.32,-16.89 32.4,-20.77 34.96,-14.96 66.97,-14.4 103.63,-5.43 16,3.92 29.88,10.4 43.69,16.38 -1.66,-5.93 -10.81,-16.44 -15.34,-20.71 -9.72,-9.14 -17.85,-9.8 -22.93,-12.23 -0.06,-0.02 -0.22,-0.03 -0.26,-0.15 -0.04,-0.12 -0.17,-0.1 -0.25,-0.16 4.09,-4.23 7.29,-5.62 15.15,-5.86l-2.05 -1.31c-12.04,-5 -21.94,-5.06 -34.29,-2.98 1.06,-2.68 5.24,-5.58 7.87,-7.41 10.57,-7.37 19.56,-10.76 33.57,-11.22 -6.57,-5.56 -27.97,-4.86 -38.02,-3.11 -4.04,0.7 -7.83,1.97 -11.47,2.61 -2.73,0.63 -5.67,1.74 -8.14,2.66 -1.32,0.5 -2.43,0.87 -3.76,1.4 -2.96,1.19 -2.89,1.98 -3.87,1.27 1.65,-1.34 11.1,-11.78 13.56,-10.8z"/>
   <path class="fil1" d="M4.03 114.35c1.14,-0.47 2,-0.81 3.13,-1.16 41.74,-13.06 81.2,17.55 106.87,17.54 10.2,0 14.07,-5.6 9.03,-14.46 -4.71,-8.29 -12.79,-10.38 -11.9,-15.31 8.09,-4.66 30.81,8.03 35.36,12.44 1.07,1.04 1.75,1.8 2.82,2.73 1.73,1.5 3.78,3.11 6.08,4.65 10.35,6.92 28.12,6.92 30.03,-0.84 0.7,-2.86 -1.53,-4.28 -3.1,-5.5 -8.95,-6.97 -17.38,-12.34 -28.13,-16.89 -41.76,-17.67 -96.14,-16.44 -135.86,5.83 -9.94,5.57 -9.56,6.28 -16.62,11.27l-1.07 0.66 3.36 -0.96z"/>
   <path class="fil2" d="M12.97 75.88l8.66 -12.12c8.39,-10.26 25.02,-23.36 37.91,-25.79 -6.17,4.74 -10.75,12.96 -12.82,20.97 2.26,-1.17 4.13,-3.97 6.41,-5.72 1.26,-0.96 1.97,-1.79 3.22,-2.78 16.02,-12.73 30.56,-23.05 53.84,-24.74 -2.68,-4.93 -8.13,-10.42 -12.04,-13.59 -27.28,-22.1 -69.19,-13.17 -84.56,20.47 -6.03,13.21 -6.46,29.8 -0.62,43.3z"/>
   <path class="fil2" d="M115.72 36.84l-2.21 -5.47c-2.46,-0.98 -11.91,9.46 -13.56,10.8 0.98,0.71 0.91,-0.08 3.87,-1.27 1.33,-0.53 2.44,-0.9 3.76,-1.4 2.47,-0.92 5.41,-2.03 8.14,-2.66z"/>
  </g>
 </g>
</svg>
